<svg width="24" height="25" viewBox="0 0 24 25" fill="none" xmlns="http://www.w3.org/2000/svg">
<path d="M12 14.25C11.59 14.25 11.25 13.91 11.25 13.5V8.5C11.25 8.09 11.59 7.75 12 7.75C12.41 7.75 12.75 8.09 12.75 8.5V13.5C12.75 13.91 12.41 14.25 12 14.25Z" fill="#292D32"/>
<path d="M14.8906 3.95H9.11062C8.71062 3.95 8.39062 3.63 8.39062 3.23C8.39062 2.83 8.71062 2.5 9.11062 2.5H14.8906C15.2906 2.5 15.6106 2.82 15.6106 3.22C15.6106 3.62 15.2906 3.95 14.8906 3.95Z" fill="#292D32"/>
<path opacity="0.4" d="M14.9981 20.47V17.53C14.9981 16.26 15.7581 15.5 17.0281 15.5H19.9681C20.1581 15.5 20.3281 15.52 20.4981 15.56C20.6081 15 20.6681 14.42 20.6681 13.83C20.6681 9.05003 16.7781 5.16003 11.9981 5.16003C7.21812 5.16003 3.32812 9.05003 3.32812 13.83C3.32812 18.61 7.21812 22.5 11.9981 22.5C13.2081 22.5 14.3581 22.25 15.4081 21.8C15.1481 21.46 14.9981 21.02 14.9981 20.47Z" fill="#292D32"/>
<path d="M19.97 15.5H17.03C15.76 15.5 15 16.26 15 17.53V20.47C15 21.74 15.76 22.5 17.03 22.5H19.97C21.24 22.5 22 21.74 22 20.47V17.53C22 16.26 21.24 15.5 19.97 15.5ZM19.69 19.96L18.51 20.64C18.27 20.78 18.03 20.85 17.81 20.85C17.64 20.85 17.49 20.81 17.35 20.73C17.03 20.54 16.85 20.17 16.85 19.68V18.32C16.85 17.83 17.03 17.46 17.35 17.27C17.67 17.08 18.08 17.12 18.51 17.36L19.69 18.04C20.11 18.29 20.35 18.63 20.35 19C20.35 19.37 20.12 19.71 19.69 19.96Z" fill="#292D32"/>
</svg>
